<svg xmlns="http://www.w3.org/2000/svg" viewBox="0 0 100 100" width="100" height="100">
  <circle cx="50" cy="50" r="45" fill="#2AABEE" />
  <path d="M50 20C33.43 20 20 33.43 20 50s13.43 30 30 30 30-13.43 30-30S66.57 20 50 20zm-9 40c-5.52 0-10-4.48-10-10s4.48-10 10-10 10 4.48 10 10-4.48 10-10 10zm18 0c-5.52 0-10-4.48-10-10s4.48-10 10-10 10 4.48 10 10-4.48 10-10 10z" fill="#fff"/>
  <path d="M41 45c-2.76 0-5 2.24-5 5s2.24 5 5 5 5-2.24 5-5-2.24-5-5-5zm18 0c-2.76 0-5 2.24-5 5s2.24 5 5 5 5-2.24 5-5-2.24-5-5-5z" fill="#2AABEE"/>
  <path d="M41 60h18M50 50v10" stroke="#fff" stroke-width="3" stroke-linecap="round"/>
</svg> 