<?xml version="1.0" encoding="UTF-8"?>
<svg width="100px" height="100px" viewBox="0 0 100 100" version="1.1" xmlns="http://www.w3.org/2000/svg" xmlns:xlink="http://www.w3.org/1999/xlink">
    <title>Anonchatik Logo</title>
    <defs>
        <linearGradient x1="0%" y1="0%" x2="100%" y2="100%" id="linearGradient">
            <stop stop-color="#2AABEE" offset="0%"></stop>
            <stop stop-color="#229ED9" offset="100%"></stop>
        </linearGradient>
        <filter id="shadow" x="-20%" y="-20%" width="140%" height="140%">
            <feGaussianBlur in="SourceAlpha" stdDeviation="3"></feGaussianBlur>
            <feOffset dx="0" dy="2" result="offsetblur"></feOffset>
            <feComponentTransfer>
                <feFuncA type="linear" slope="0.3"></feFuncA>
            </feComponentTransfer>
            <feMerge>
                <feMergeNode></feMergeNode>
                <feMergeNode in="SourceGraphic"></feMergeNode>
            </feMerge>
        </filter>
    </defs>
    <g stroke="none" stroke-width="1" fill="none" fill-rule="evenodd">
        <circle fill="url(#linearGradient)" cx="50" cy="50" r="50"></circle>
        <g transform="translate(20, 20)" fill="#FFFFFF" fill-rule="nonzero" filter="url(#shadow)">
            <!-- Chat Bubble -->
            <path d="M30,0 C13.4315,0 0,13.4315 0,30 C0,46.5685 13.4315,60 30,60 C33.7645,60 37.3845,59.331 40.7355,58.0845 L58.2735,59.9805 C59.3355,60.111 60.111,59.3355 59.9805,58.2735 L58.0845,40.7355 C59.331,37.3845 60,33.7645 60,30 C60,13.4315 46.5685,0 30,0 Z M15,30 C15,26.6865 17.6865,24 21,24 C24.3135,24 27,26.6865 27,30 C27,33.3135 24.3135,36 21,36 C17.6865,36 15,33.3135 15,30 Z M33,30 C33,26.6865 35.6865,24 39,24 C42.3135,24 45,26.6865 45,30 C45,33.3135 42.3135,36 39,36 C35.6865,36 33,33.3135 33,30 Z"></path>
        </g>
    </g>
</svg> 